<svg xmlns="http://www.w3.org/2000/svg" viewBox="0 0 256 256">
  <!-- Cat Dead + Steak - Frame 2 -->
  
  <!-- bg (transparent) -->
  <g id="bg"></g>
  
  <!-- cat-tail -->
  <g id="cat-tail">
    <path d="M185 152 Q210 167 220 192 Q225 212 215 222" fill="#F7DCD6" stroke="#E8CCC6" stroke-width="2" stroke-linecap="round" stroke-linejoin="round"/>
  </g>
  
  <!-- cat-body -->
  <g id="cat-body">
    <ellipse cx="128" cy="168" rx="58" ry="52" fill="#F7DCD6"/>
    <ellipse cx="128" cy="168" rx="58" ry="52" fill="none" stroke="#E8CCC6" stroke-width="2"/>
  </g>
  
  <!-- cat-paws -->
  <g id="cat-paws">
    <ellipse cx="100" cy="203" rx="16" ry="10" fill="#F7DCD6" stroke="#E8CCC6" stroke-width="2"/>
    <ellipse cx="156" cy="203" rx="16" ry="10" fill="#F7DCD6" stroke="#E8CCC6" stroke-width="2"/>
  </g>
  
  <!-- cat-ears -->
  <g id="cat-ears">
    <!-- Left ear outer -->
    <path d="M88 85 Q80 53 95 58 Q105 55 102 85" fill="#F7DCD6" stroke="#E8CCC6" stroke-width="2" stroke-linecap="round" stroke-linejoin="round"/>
    <!-- Left ear inner -->
    <path d="M91 78 Q88 63 95 65 Q100 63 98 78" fill="#F5C869"/>
    <!-- Right ear outer -->
    <path d="M154 85 Q151 55 161 58 Q176 53 168 85" fill="#F7DCD6" stroke="#E8CCC6" stroke-width="2" stroke-linecap="round" stroke-linejoin="round"/>
    <!-- Right ear inner -->
    <path d="M158 78 Q156 63 161 65 Q168 63 165 78" fill="#F5C869"/>
  </g>
  
  <!-- cat-face-base -->
  <g id="cat-face-base">
    <ellipse cx="128" cy="108" rx="48" ry="44" fill="#F7DCD6"/>
    <ellipse cx="128" cy="108" rx="48" ry="44" fill="none" stroke="#E8CCC6" stroke-width="2"/>
    
  </g>
  
  <!-- cat-eyes -->
  <g id="cat-eyes">
    <!-- x marks -->
    <line x1="104" y1="98" x2="116" y2="108" stroke="#2B2B2B" stroke-width="2.5" stroke-linecap="round"/>
    <line x1="116" y1="98" x2="104" y2="108" stroke="#2B2B2B" stroke-width="2.5" stroke-linecap="round"/>
    <line x1="140" y1="98" x2="152" y2="108" stroke="#2B2B2B" stroke-width="2.5" stroke-linecap="round"/>
    <line x1="152" y1="98" x2="140" y2="108" stroke="#2B2B2B" stroke-width="2.5" stroke-linecap="round"/>
  </g>
  
  <!-- cat-nose -->
  <g id="cat-nose">
    <ellipse cx="128" cy="118" rx="3" ry="2" fill="#E8AFA8"/>
  </g>
  
  <!-- cat-mouth -->
  <g id="cat-mouth">
    <ellipse cx="128" cy="127" rx="5" ry="4" fill="#2B2B2B"/>
  </g>
  
  <!-- cat-whiskers -->
  <g id="cat-whiskers">
    <line x1="90" y1="115" x2="72" y2="111" stroke="#D4A59E" stroke-width="1.5" stroke-linecap="round"/>
    <line x1="90" y1="121" x2="70" y2="123" stroke="#D4A59E" stroke-width="1.5" stroke-linecap="round"/>
    <line x1="166" y1="115" x2="184" y2="111" stroke="#D4A59E" stroke-width="1.5" stroke-linecap="round"/>
    <line x1="166" y1="121" x2="186" y2="123" stroke="#D4A59E" stroke-width="1.5" stroke-linecap="round"/>
  </g>
  
  <!-- food -->
  <g id="food-steak" transform="translate(34, -10) scale(0.5)">
    <path d="M105 112 Q102 128 110 142 Q122 154 142 152 Q162 150 166 132 Q170 118 162 106 Q150 98 130 100 Q110 103 105 112 Z" fill="#E28B86" stroke="#C26B66" stroke-width="2"/>
    <path d="M108 118 Q106 128 112 138" fill="none" stroke="#F3D2CF" stroke-width="4" stroke-linecap="round"/>
  </g>
  
  <!-- fx -->
  <g id="fx">
    
  </g>
</svg>