<svg xmlns="http://www.w3.org/2000/svg" viewBox="0 0 256 256">
  <!-- Cat Loved + Fish - Frame 2 -->
  
  <!-- bg (transparent) -->
  <g id="bg"></g>
  
  <!-- cat-tail -->
  <g id="cat-tail">
    <path d="M185 137 Q225 117 232 77 Q235 47 218 40 Q205 37 200 47" fill="#F7DCD6" stroke="#E8CCC6" stroke-width="2" stroke-linecap="round" stroke-linejoin="round"/>
  </g>
  
  <!-- cat-body -->
  <g id="cat-body">
    <ellipse cx="128" cy="165" rx="58" ry="52" fill="#F7DCD6"/>
    <ellipse cx="128" cy="165" rx="58" ry="52" fill="none" stroke="#E8CCC6" stroke-width="2"/>
  </g>
  
  <!-- cat-paws -->
  <g id="cat-paws">
    <ellipse cx="100" cy="200" rx="16" ry="10" fill="#F7DCD6" stroke="#E8CCC6" stroke-width="2"/>
    <ellipse cx="156" cy="200" rx="16" ry="10" fill="#F7DCD6" stroke="#E8CCC6" stroke-width="2"/>
  </g>
  
  <!-- cat-ears -->
  <g id="cat-ears">
    <!-- Left ear outer -->
    <path d="M88 82 Q80 50 95 55 Q105 52 102 82" fill="#F7DCD6" stroke="#E8CCC6" stroke-width="2" stroke-linecap="round" stroke-linejoin="round"/>
    <!-- Left ear inner -->
    <path d="M91 75 Q88 60 95 62 Q100 60 98 75" fill="#F5C869"/>
    <!-- Right ear outer -->
    <path d="M154 82 Q151 52 161 55 Q176 50 168 82" fill="#F7DCD6" stroke="#E8CCC6" stroke-width="2" stroke-linecap="round" stroke-linejoin="round"/>
    <!-- Right ear inner -->
    <path d="M158 75 Q156 60 161 62 Q168 60 165 75" fill="#F5C869"/>
  </g>
  
  <!-- cat-face-base -->
  <g id="cat-face-base">
    <ellipse cx="128" cy="105" rx="48" ry="44" fill="#F7DCD6"/>
    <ellipse cx="128" cy="105" rx="48" ry="44" fill="none" stroke="#E8CCC6" stroke-width="2"/>
    <ellipse cx="95" cy="112" rx="8" ry="5" fill="#F2A5A0" opacity="0.4"/>
    <ellipse cx="161" cy="112" rx="8" ry="5" fill="#F2A5A0" opacity="0.4"/>
  </g>
  
  <!-- cat-eyes -->
  <g id="cat-eyes">
    <path d="M102 100 Q110 94 118 100" fill="none" stroke="#2B2B2B" stroke-width="3" stroke-linecap="round"/>
    <path d="M138 100 Q146 94 154 100" fill="none" stroke="#2B2B2B" stroke-width="3" stroke-linecap="round"/>
  </g>
  
  <!-- cat-nose -->
  <g id="cat-nose">
    <ellipse cx="128" cy="115" rx="3" ry="2" fill="#E8AFA8"/>
  </g>
  
  <!-- cat-mouth -->
  <g id="cat-mouth">
    <path d="M128 117 L128 119" fill="none" stroke="#D4A59E" stroke-width="2" stroke-linecap="round"/>
    <ellipse cx="128" cy="124" rx="5" ry="4" fill="#2B2B2B"/>
  </g>
  
  <!-- cat-whiskers -->
  <g id="cat-whiskers">
    <line x1="90" y1="112" x2="72" y2="108" stroke="#D4A59E" stroke-width="1.5" stroke-linecap="round"/>
    <line x1="90" y1="118" x2="70" y2="120" stroke="#D4A59E" stroke-width="1.5" stroke-linecap="round"/>
    <line x1="166" y1="112" x2="184" y2="108" stroke="#D4A59E" stroke-width="1.5" stroke-linecap="round"/>
    <line x1="166" y1="118" x2="186" y2="120" stroke="#D4A59E" stroke-width="1.5" stroke-linecap="round"/>
  </g>
  
  <!-- food -->
  <g id="food-fish" transform="translate(32, -13) scale(0.65)">
    <ellipse cx="138" cy="128" rx="22" ry="13" fill="#CFE3E7" stroke="#AFC9CF" stroke-width="2"/>
    <path d="M160 128 L174 118 L174 138 Z" fill="#CFE3E7" stroke="#AFC9CF" stroke-width="2"/>
  </g>
  
  <!-- fx -->
  <g id="fx">
    <!-- Hearts -->
    <path d="M175 65 C175 60 180 57 184 61 C188 57 193 60 193 65 C193 72 184 78 184 78 C184 78 175 72 175 65" fill="#F2A5A0" opacity="0.6"/>
    <path d="M188 48 C188 44 192 42 195 45 C198 42 202 44 202 48 C202 53 195 58 195 58 C195 58 188 53 188 48" fill="#F2A5A0" opacity="0.4"/>
  </g>
</svg>