<svg xmlns="http://www.w3.org/2000/svg" viewBox="0 0 256 256">
  <!-- Cat Neutral + Fish - Frame 1 -->
  
  <!-- bg (transparent) -->
  <g id="bg"></g>
  
  <!-- cat-tail -->
  <g id="cat-tail">
    <path d="M185 140 Q220 130 225 95 Q228 70 215 65" fill="#F7DCD6" stroke="#E8CCC6" stroke-width="2" stroke-linecap="round" stroke-linejoin="round"/>
  </g>
  
  <!-- cat-body -->
  <g id="cat-body">
    <ellipse cx="128" cy="165" rx="58" ry="52" fill="#F7DCD6"/>
    <ellipse cx="128" cy="165" rx="58" ry="52" fill="none" stroke="#E8CCC6" stroke-width="2"/>
  </g>
  
  <!-- cat-paws -->
  <g id="cat-paws">
    <ellipse cx="100" cy="200" rx="16" ry="10" fill="#F7DCD6" stroke="#E8CCC6" stroke-width="2"/>
    <ellipse cx="156" cy="200" rx="16" ry="10" fill="#F7DCD6" stroke="#E8CCC6" stroke-width="2"/>
  </g>
  
  <!-- cat-ears -->
  <g id="cat-ears">
    <!-- Left ear outer -->
    <path d="M88 82 Q80 50 95 55 Q105 52 102 82" fill="#F7DCD6" stroke="#E8CCC6" stroke-width="2" stroke-linecap="round" stroke-linejoin="round"/>
    <!-- Left ear inner -->
    <path d="M91 75 Q88 60 95 62 Q100 60 98 75" fill="#F5C869"/>
    <!-- Right ear outer -->
    <path d="M154 82 Q151 52 161 55 Q176 50 168 82" fill="#F7DCD6" stroke="#E8CCC6" stroke-width="2" stroke-linecap="round" stroke-linejoin="round"/>
    <!-- Right ear inner -->
    <path d="M158 75 Q156 60 161 62 Q168 60 165 75" fill="#F5C869"/>
  </g>
  
  <!-- cat-face-base -->
  <g id="cat-face-base">
    <ellipse cx="128" cy="105" rx="48" ry="44" fill="#F7DCD6"/>
    <ellipse cx="128" cy="105" rx="48" ry="44" fill="none" stroke="#E8CCC6" stroke-width="2"/>
    
  </g>
  
  <!-- cat-eyes -->
  <g id="cat-eyes">
    <circle cx="110" cy="100" r="4" fill="#2B2B2B"/>
    <circle cx="146" cy="100" r="4" fill="#2B2B2B"/>
  </g>
  
  <!-- cat-nose -->
  <g id="cat-nose">
    <ellipse cx="128" cy="115" rx="3" ry="2" fill="#E8AFA8"/>
  </g>
  
  <!-- cat-mouth -->
  <g id="cat-mouth">
    <path d="M128 117 L128 122" fill="none" stroke="#D4A59E" stroke-width="2" stroke-linecap="round"/>
    <path d="M122 124 Q128 128 134 124" fill="none" stroke="#D4A59E" stroke-width="2" stroke-linecap="round"/>
  </g>
  
  <!-- cat-whiskers -->
  <g id="cat-whiskers">
    <line x1="90" y1="112" x2="72" y2="108" stroke="#D4A59E" stroke-width="1.5" stroke-linecap="round"/>
    <line x1="90" y1="118" x2="70" y2="120" stroke="#D4A59E" stroke-width="1.5" stroke-linecap="round"/>
    <line x1="166" y1="112" x2="184" y2="108" stroke="#D4A59E" stroke-width="1.5" stroke-linecap="round"/>
    <line x1="166" y1="118" x2="186" y2="120" stroke="#D4A59E" stroke-width="1.5" stroke-linecap="round"/>
  </g>
  
  <!-- food -->
  <g id="food-fish" transform="translate(44, -13) scale(0.7)">
    <ellipse cx="128" cy="128" rx="28" ry="15" fill="#CFE3E7" stroke="#AFC9CF" stroke-width="2"/>
    <path d="M156 128 L172 116 L172 140 Z" fill="#CFE3E7" stroke="#AFC9CF" stroke-width="2"/>
    <circle cx="108" cy="126" r="2.5" fill="#2B2B2B"/>
    <path d="M125 113 Q129 105 136 113" fill="#AFC9CF" stroke="#AFC9CF" stroke-width="1"/>
  </g>
  
  <!-- fx -->
  <g id="fx">
    
  </g>
</svg>